<svg width="100" height="100" viewBox="0 0 100 100" fill="none" xmlns="http://www.w3.org/2000/svg">
<rect width="100" height="100" fill="white"/>
<path d="M33.6507 68.1047L76.1189 24.2536C78.1801 25.8729 79.927 27.8905 81.2483 30.1925L39.1362 73.6759C37.5825 72.1008 35.7659 70.2564 33.6507 68.1047Z" fill="#F56E4C"/>
<path d="M44.2825 78.8785C46.6131 81.226 47.451 82.0538 47.4686 82.0709C48.0787 82.6701 48.8801 83 49.7213 83L49.8044 82.9978C50.6684 82.9758 51.5031 82.5906 52.0982 81.9407L52.1028 81.9358C52.2637 81.7608 56.5153 77.1381 77.5714 55.6231C77.6112 55.5834 77.6654 55.5272 77.7247 55.4565C81.7721 51.5304 84 46.2447 84 40.5631C84 39.7039 83.9482 38.8569 83.8475 38.0251L44.2825 78.8785Z" fill="#F56E4C"/>
<path d="M20.9654 55.1686C23.752 58.0159 26.2631 60.5788 28.5231 62.8827L69.3146 20.7629C67.584 20.2659 65.7597 20 63.8758 20C58.4298 20 53.256 22.2399 49.4989 26.1848C45.7429 22.2401 40.5702 20 35.1242 20C24.0281 20 15 29.2249 15 40.5631C15 45.7406 16.9222 50.716 20.3856 54.5418C20.4925 54.6698 20.5995 54.7969 20.8176 55.0175L20.9654 55.1686Z" fill="#F56E4C"/>
</svg>
